<svg version="1.1" id="Layer_1" xmlns="http://www.w3.org/2000/svg" xmlns:xlink="http://www.w3.org/1999/xlink" x="0px" y="0px"
	 width="100%" viewBox="0 0 512 512" enable-background="new 0 0 512 512" xml:space="preserve">
<path fill="#F08B71" opacity="1.000000" stroke="none" 
	d="
M289.000000,513.000000 
	C192.690048,513.000000 96.880096,513.000000 1.035069,513.000000 
	C1.035069,342.398346 1.035069,171.796707 1.035069,1.097524 
	C171.559967,1.097524 342.120026,1.097524 512.840027,1.097524 
	C512.840027,171.666550 512.840027,342.333252 512.840027,513.000000 
	C438.463348,513.000000 363.981659,513.000000 289.000000,513.000000 
M146.618774,270.101593 
	C156.569702,272.044312 161.862228,269.708221 165.601730,260.566528 
	C170.288574,249.108856 168.066666,237.869385 162.982346,227.063446 
	C160.672256,222.153687 157.883209,221.533295 154.562668,225.660965 
	C151.091492,229.975876 148.229996,234.853424 145.608704,239.755951 
	C143.676422,243.369812 142.558609,247.419174 141.077881,251.274490 
	C140.003510,250.264664 139.873764,249.615952 139.882797,248.969177 
	C140.058044,236.414230 140.440948,223.857010 140.276611,211.306854 
	C140.243622,208.788956 138.640945,205.855560 136.893478,203.883240 
	C132.726913,199.180481 126.824432,200.499619 121.939590,201.701553 
	C115.080742,203.389236 114.551559,208.872223 119.384422,214.039948 
	C122.211838,217.063232 124.594536,220.879227 125.996696,224.764679 
	C127.812630,229.796722 128.327133,235.284515 129.631592,240.518860 
	C131.018890,246.085556 132.517044,251.636383 134.282730,257.091888 
	C135.107162,259.639099 136.234543,262.362305 138.020813,264.253937 
	C140.193497,266.554840 143.205414,268.063293 146.618774,270.101593 
M179.182587,265.632874 
	C183.362930,271.582672 184.734283,271.913239 189.198059,266.886078 
	C194.241959,261.205566 198.929031,255.202713 203.629852,249.228745 
	C204.380020,248.275406 204.389374,246.739105 204.741211,245.472321 
	C205.188995,246.105606 205.636780,246.738892 206.084564,247.372177 
	C206.370682,253.768433 206.546127,260.173309 207.042740,266.553162 
	C207.134460,267.731354 208.329269,269.110992 209.399506,269.802246 
	C209.920624,270.138824 212.170761,269.116119 212.177689,268.685303 
	C212.198898,267.364349 211.568359,266.011871 211.089447,264.709076 
	C210.450867,262.971954 208.997772,261.206024 209.143906,259.563660 
	C209.905533,251.003036 211.106003,242.482391 212.051422,233.936493 
	C212.268692,231.972488 212.083435,229.963943 212.083435,228.890625 
	C208.961807,227.806747 206.606155,227.251663 204.491455,226.208237 
	C196.125198,222.080231 188.054169,223.455902 185.754242,230.459702 
	C182.108887,241.560562 178.311569,252.769012 179.182587,265.632874 
M288.569611,232.085327 
	C285.170746,237.035751 281.846008,242.039185 278.352661,246.922012 
	C274.692871,252.037491 270.871155,257.037140 266.352264,263.121460 
	C264.344971,251.840607 269.610779,241.542053 264.297729,232.121155 
	C263.397095,232.730576 263.087646,233.315857 263.063507,233.912659 
	C262.728760,242.199432 261.960114,250.509918 262.346222,258.765533 
	C262.515381,262.382996 260.401917,267.194366 266.011017,270.505249 
	C273.783417,259.142914 281.487488,247.880493 289.191559,236.618073 
	C289.660034,236.816620 290.128510,237.015167 290.596985,237.213699 
	C291.015625,239.095306 291.509308,240.963867 291.838898,242.860947 
	C292.858185,248.727234 293.727631,254.620819 294.829102,260.471069 
	C295.474091,263.896851 296.946259,267.019806 300.950928,267.331635 
	C306.502716,267.763977 314.447662,259.250793 314.333252,252.137497 
	C312.597565,254.195023 311.592102,255.851669 310.167358,256.978027 
	C307.296265,259.247772 304.197052,261.228943 301.191956,263.329163 
	C299.773010,260.298584 297.795013,257.397400 297.057098,254.209229 
	C295.716736,248.417999 295.408752,242.386536 294.045013,236.602676 
	C293.560638,234.548462 293.740234,230.347595 288.569611,232.085327 
M377.686829,234.961884 
	C378.475372,230.446823 376.943726,226.246735 372.641602,225.503571 
	C370.037994,225.053833 366.425171,227.614426 364.019470,229.694275 
	C361.868256,231.554123 360.853241,234.681793 359.139893,237.111115 
	C358.018311,238.701324 355.678833,239.889069 355.386414,241.525406 
	C354.340179,247.379959 353.595886,253.336182 353.370697,259.277924 
	C353.076447,267.041595 356.646881,274.237061 365.354248,273.385925 
	C372.002045,272.736115 377.100861,269.065613 380.239319,263.038361 
	C380.570312,262.402710 380.201721,261.402740 380.154572,260.513031 
	C376.909027,262.838379 374.027466,264.944519 371.102722,266.988800 
	C366.686371,270.075653 360.352081,269.639282 357.568573,266.099976 
	C355.336426,263.261749 356.198700,251.514496 358.840881,249.534607 
	C359.324524,249.172180 360.061035,249.049759 360.695160,249.000351 
	C369.271301,248.331894 374.625885,243.618454 377.686829,234.961884 
M324.197388,249.553223 
	C325.315552,249.375778 326.437042,249.217117 327.551300,249.017868 
	C336.644562,247.391830 343.775208,240.385941 343.004822,231.381271 
	C342.604645,226.703552 337.335938,222.917328 334.396973,225.616180 
	C329.466583,230.143692 323.965240,235.015564 321.429840,240.914108 
	C318.879791,246.846710 319.167969,254.202850 319.086548,260.945770 
	C318.960632,271.365295 327.587616,276.570374 336.753174,271.667542 
	C340.990845,269.400726 345.627319,266.798157 346.006104,260.251556 
	C342.109680,263.099365 339.118286,266.204529 335.468933,267.660736 
	C332.575806,268.815216 328.472076,268.878174 325.673584,267.660889 
	C323.731750,266.816223 322.254486,263.030365 322.082062,260.457245 
	C321.858398,257.119659 323.137695,253.681335 324.197388,249.553223 
M228.063782,219.702164 
	C228.430450,224.029160 228.797119,228.356155 229.171768,232.777390 
	C225.888031,232.777390 223.614059,232.777390 221.265305,232.777390 
	C220.124954,238.722076 225.937119,236.716721 228.064224,239.061691 
	C228.064224,241.132477 227.906982,243.302460 228.095062,245.442078 
	C228.571487,250.861877 228.352066,256.537048 229.959396,261.620483 
	C232.806290,270.624268 244.703537,272.959839 251.704514,266.420227 
	C251.927078,266.212341 251.687103,265.509277 251.639313,264.582916 
	C248.975525,265.020782 246.458939,265.511047 243.921234,265.837036 
	C236.662186,266.769440 232.774170,264.807617 231.691452,258.241455 
	C230.728699,252.402847 231.129471,246.326111 231.148956,240.355194 
	C231.151474,239.584702 232.365067,238.328079 233.208908,238.135773 
	C236.741653,237.330704 240.344467,236.828018 243.927017,236.247879 
	C247.385590,235.687820 250.850784,235.168686 254.313065,234.631577 
	C254.283264,234.144196 254.253464,233.656799 254.223648,233.169403 
	C246.941681,233.169403 239.659714,233.169403 232.082306,233.169403 
	C232.082306,227.981369 232.282043,223.507462 231.971146,219.069305 
	C231.866028,217.568649 230.468338,216.158554 229.661377,214.707062 
	C229.029755,216.152313 228.398117,217.597565 228.063782,219.702164 
z"/>
<path fill="#FEF6F4" opacity="1.000000" stroke="none" 
	d="
M146.236542,270.008057 
	C143.205414,268.063293 140.193497,266.554840 138.020813,264.253937 
	C136.234543,262.362305 135.107162,259.639099 134.282730,257.091888 
	C132.517044,251.636383 131.018890,246.085556 129.631592,240.518860 
	C128.327133,235.284515 127.812630,229.796722 125.996696,224.764679 
	C124.594536,220.879227 122.211838,217.063232 119.384422,214.039948 
	C114.551559,208.872223 115.080742,203.389236 121.939590,201.701553 
	C126.824432,200.499619 132.726913,199.180481 136.893478,203.883240 
	C138.640945,205.855560 140.243622,208.788956 140.276611,211.306854 
	C140.440948,223.857010 140.058044,236.414230 139.882797,248.969177 
	C139.873764,249.615952 140.003510,250.264664 141.077881,251.274490 
	C142.558609,247.419174 143.676422,243.369812 145.608704,239.755951 
	C148.229996,234.853424 151.091492,229.975876 154.562668,225.660965 
	C157.883209,221.533295 160.672256,222.153687 162.982346,227.063446 
	C168.066666,237.869385 170.288574,249.108856 165.601730,260.566528 
	C161.862228,269.708221 156.569702,272.044312 146.236542,270.008057 
M144.528488,250.736267 
	C143.454315,254.656952 142.380127,258.577637 141.335251,262.391327 
	C143.284256,263.055145 145.207443,263.285645 146.611176,264.262512 
	C152.391586,268.285095 157.250168,267.652130 161.148193,261.985382 
	C167.988907,252.040741 165.703003,241.742249 161.759048,231.674454 
	C159.761124,226.574326 157.029419,226.255127 154.078079,231.036346 
	C150.391647,237.008438 147.827728,243.673386 144.528488,250.736267 
M129.136963,223.326385 
	C131.806671,230.712112 134.476379,238.097839 137.382629,246.137955 
	C137.382629,234.869247 137.382629,224.113205 137.382629,213.159897 
	C133.195847,214.053223 129.649246,214.809967 125.969742,215.595062 
	C127.001427,218.060425 127.954735,220.338531 129.136963,223.326385 
M123.362755,210.139603 
	C126.944839,209.124695 130.526932,208.109787 134.109024,207.094879 
	C127.463898,205.779770 124.350883,206.842819 123.362755,210.139603 
z"/>
<path fill="#FEF5F2" opacity="1.000000" stroke="none" 
	d="
M179.175873,265.212158 
	C178.311569,252.769012 182.108887,241.560562 185.754242,230.459702 
	C188.054169,223.455902 196.125198,222.080231 204.491455,226.208237 
	C206.606155,227.251663 208.961807,227.806747 212.083435,228.890625 
	C212.083435,229.963943 212.268692,231.972488 212.051422,233.936493 
	C211.106003,242.482391 209.905533,251.003036 209.143906,259.563660 
	C208.997772,261.206024 210.450867,262.971954 211.089447,264.709076 
	C211.568359,266.011871 212.198898,267.364349 212.177689,268.685303 
	C212.170761,269.116119 209.920624,270.138824 209.399506,269.802246 
	C208.329269,269.110992 207.134460,267.731354 207.042740,266.553162 
	C206.546127,260.173309 206.370682,253.768433 206.084564,247.372177 
	C205.636780,246.738892 205.188995,246.105606 204.741211,245.472321 
	C204.389374,246.739105 204.380020,248.275406 203.629852,249.228745 
	C198.929031,255.202713 194.241959,261.205566 189.198059,266.886078 
	C184.734283,271.913239 183.362930,271.582672 179.175873,265.212158 
M182.929520,253.586365 
	C182.582245,256.199280 182.045029,258.806519 181.966888,261.427460 
	C181.927124,262.761322 182.713089,264.119781 183.125793,265.467133 
	C184.286133,265.003052 185.691299,264.813904 186.568939,264.032379 
	C195.290314,256.266144 202.812576,247.547592 207.242294,236.565689 
	C207.725723,235.367218 207.853653,233.221268 207.141953,232.482513 
	C203.875107,229.091476 199.581390,227.474106 194.949615,228.176819 
	C191.081375,228.763702 188.580536,231.473618 187.563843,235.388046 
	C186.060562,241.175858 184.507431,246.950729 182.929520,253.586365 
z"/>
<path fill="#FEF6F3" opacity="1.000000" stroke="none" 
	d="
M288.876343,231.905701 
	C293.740234,230.347595 293.560638,234.548462 294.045013,236.602676 
	C295.408752,242.386536 295.716736,248.417999 297.057098,254.209229 
	C297.795013,257.397400 299.773010,260.298584 301.191956,263.329163 
	C304.197052,261.228943 307.296265,259.247772 310.167358,256.978027 
	C311.592102,255.851669 312.597565,254.195023 314.333252,252.137497 
	C314.447662,259.250793 306.502716,267.763977 300.950928,267.331635 
	C296.946259,267.019806 295.474091,263.896851 294.829102,260.471069 
	C293.727631,254.620819 292.858185,248.727234 291.838898,242.860947 
	C291.509308,240.963867 291.015625,239.095306 290.596985,237.213699 
	C290.128510,237.015167 289.660034,236.816620 289.191559,236.618073 
	C281.487488,247.880493 273.783417,259.142914 266.011017,270.505249 
	C260.401917,267.194366 262.515381,262.382996 262.346222,258.765533 
	C261.960114,250.509918 262.728760,242.199432 263.063507,233.912659 
	C263.087646,233.315857 263.397095,232.730576 264.297729,232.121155 
	C269.610779,241.542053 264.344971,251.840607 266.352264,263.121460 
	C270.871155,257.037140 274.692871,252.037491 278.352661,246.922012 
	C281.846008,242.039185 285.170746,237.035751 288.876343,231.905701 
z"/>
<path fill="#FEF6F4" opacity="1.000000" stroke="none" 
	d="
M377.577423,235.341125 
	C374.625885,243.618454 369.271301,248.331894 360.695160,249.000351 
	C360.061035,249.049759 359.324524,249.172180 358.840881,249.534607 
	C356.198700,251.514496 355.336426,263.261749 357.568573,266.099976 
	C360.352081,269.639282 366.686371,270.075653 371.102722,266.988800 
	C374.027466,264.944519 376.909027,262.838379 380.154572,260.513031 
	C380.201721,261.402740 380.570312,262.402710 380.239319,263.038361 
	C377.100861,269.065613 372.002045,272.736115 365.354248,273.385925 
	C356.646881,274.237061 353.076447,267.041595 353.370697,259.277924 
	C353.595886,253.336182 354.340179,247.379959 355.386414,241.525406 
	C355.678833,239.889069 358.018311,238.701324 359.139893,237.111115 
	C360.853241,234.681793 361.868256,231.554123 364.019470,229.694275 
	C366.425171,227.614426 370.037994,225.053833 372.641602,225.503571 
	C376.943726,226.246735 378.475372,230.446823 377.577423,235.341125 
M368.099426,230.424225 
	C365.207062,234.574814 362.314667,238.725403 359.422302,242.875977 
	C359.939911,243.319931 360.457550,243.763870 360.975159,244.207809 
	C366.319672,243.179581 371.069427,240.992767 373.659302,235.676132 
	C374.418915,234.116806 374.083374,232.023987 374.249756,230.175690 
	C372.429321,230.151886 370.608856,230.128082 368.099426,230.424225 
z"/>
<path fill="#FEF6F3" opacity="1.000000" stroke="none" 
	d="
M323.983704,249.919800 
	C323.137695,253.681335 321.858398,257.119659 322.082062,260.457245 
	C322.254486,263.030365 323.731750,266.816223 325.673584,267.660889 
	C328.472076,268.878174 332.575806,268.815216 335.468933,267.660736 
	C339.118286,266.204529 342.109680,263.099365 346.006104,260.251556 
	C345.627319,266.798157 340.990845,269.400726 336.753174,271.667542 
	C327.587616,276.570374 318.960632,271.365295 319.086548,260.945770 
	C319.167969,254.202850 318.879791,246.846710 321.429840,240.914108 
	C323.965240,235.015564 329.466583,230.143692 334.396973,225.616180 
	C337.335938,222.917328 342.604645,226.703552 343.004822,231.381271 
	C343.775208,240.385941 336.644562,247.391830 327.551300,249.017868 
	C326.437042,249.217117 325.315552,249.375778 323.983704,249.919800 
M332.506348,242.283249 
	C334.884491,239.833466 337.552856,237.588364 339.496643,234.832230 
	C340.264496,233.743484 339.889008,231.235123 339.106659,229.928589 
	C338.723358,229.288574 335.942841,229.405823 334.722443,230.062851 
	C329.438324,232.907623 327.894104,238.288620 325.470978,243.045685 
	C325.792725,243.429001 326.114441,243.812317 326.436157,244.195633 
	C328.245483,243.693680 330.054840,243.191711 332.506348,242.283249 
z"/>
<path fill="#FEF5F2" opacity="1.000000" stroke="none" 
	d="
M227.915131,219.372482 
	C228.398117,217.597565 229.029755,216.152313 229.661377,214.707062 
	C230.468338,216.158554 231.866028,217.568649 231.971146,219.069305 
	C232.282043,223.507462 232.082306,227.981369 232.082306,233.169403 
	C239.659714,233.169403 246.941681,233.169403 254.223648,233.169403 
	C254.253464,233.656799 254.283264,234.144196 254.313065,234.631577 
	C250.850784,235.168686 247.385590,235.687820 243.927017,236.247879 
	C240.344467,236.828018 236.741653,237.330704 233.208908,238.135773 
	C232.365067,238.328079 231.151474,239.584702 231.148956,240.355194 
	C231.129471,246.326111 230.728699,252.402847 231.691452,258.241455 
	C232.774170,264.807617 236.662186,266.769440 243.921234,265.837036 
	C246.458939,265.511047 248.975525,265.020782 251.639313,264.582916 
	C251.687103,265.509277 251.927078,266.212341 251.704514,266.420227 
	C244.703537,272.959839 232.806290,270.624268 229.959396,261.620483 
	C228.352066,256.537048 228.571487,250.861877 228.095062,245.442078 
	C227.906982,243.302460 228.064224,241.132477 228.064224,239.061691 
	C225.937119,236.716721 220.124954,238.722076 221.265305,232.777390 
	C223.614059,232.777390 225.888031,232.777390 229.171768,232.777390 
	C228.797119,228.356155 228.430450,224.029160 227.915131,219.372482 
z"/>
<path fill="#F08C72" opacity="1.000000" stroke="none" 
	d="
M144.653839,250.387741 
	C147.827728,243.673386 150.391647,237.008438 154.078079,231.036346 
	C157.029419,226.255127 159.761124,226.574326 161.759048,231.674454 
	C165.703003,241.742249 167.988907,252.040741 161.148193,261.985382 
	C157.250168,267.652130 152.391586,268.285095 146.611176,264.262512 
	C145.207443,263.285645 143.284256,263.055145 141.335251,262.391327 
	C142.380127,258.577637 143.454315,254.656952 144.653839,250.387741 
z"/>
<path fill="#F19279" opacity="1.000000" stroke="none" 
	d="
M129.022507,222.971512 
	C127.954735,220.338531 127.001427,218.060425 125.969742,215.595062 
	C129.649246,214.809967 133.195847,214.053223 137.382629,213.159897 
	C137.382629,224.113205 137.382629,234.869247 137.382629,246.137955 
	C134.476379,238.097839 131.806671,230.712112 129.022507,222.971512 
z"/>
<path fill="#F19279" opacity="1.000000" stroke="none" 
	d="
M123.027252,210.107941 
	C124.350883,206.842819 127.463898,205.779770 134.109024,207.094879 
	C130.526932,208.109787 126.944839,209.124695 123.027252,210.107941 
z"/>
<path fill="#F08C73" opacity="1.000000" stroke="none" 
	d="
M182.952515,253.158737 
	C184.507431,246.950729 186.060562,241.175858 187.563843,235.388046 
	C188.580536,231.473618 191.081375,228.763702 194.949615,228.176819 
	C199.581390,227.474106 203.875107,229.091476 207.141953,232.482513 
	C207.853653,233.221268 207.725723,235.367218 207.242294,236.565689 
	C202.812576,247.547592 195.290314,256.266144 186.568939,264.032379 
	C185.691299,264.813904 184.286133,265.003052 183.125793,265.467133 
	C182.713089,264.119781 181.927124,262.761322 181.966888,261.427460 
	C182.045029,258.806519 182.582245,256.199280 182.952515,253.158737 
z"/>
<path fill="#F08E75" opacity="1.000000" stroke="none" 
	d="
M368.443909,230.264252 
	C370.608856,230.128082 372.429321,230.151886 374.249756,230.175690 
	C374.083374,232.023987 374.418915,234.116806 373.659302,235.676132 
	C371.069427,240.992767 366.319672,243.179581 360.975159,244.207809 
	C360.457550,243.763870 359.939911,243.319931 359.422302,242.875977 
	C362.314667,238.725403 365.207062,234.574814 368.443909,230.264252 
z"/>
<path fill="#F08E75" opacity="1.000000" stroke="none" 
	d="
M332.185242,242.486511 
	C330.054840,243.191711 328.245483,243.693680 326.436157,244.195633 
	C326.114441,243.812317 325.792725,243.429001 325.470978,243.045685 
	C327.894104,238.288620 329.438324,232.907623 334.722443,230.062851 
	C335.942841,229.405823 338.723358,229.288574 339.106659,229.928589 
	C339.889008,231.235123 340.264496,233.743484 339.496643,234.832230 
	C337.552856,237.588364 334.884491,239.833466 332.185242,242.486511 
z"/>
</svg>